PathFileType	4	(X/Y/Z)	 s08c0303.trc
DataRate	CameraRate	NumFrames	NumMarkers	Units	OrigDataRate	OrigDataStartFrame	OrigNumFrames
200	200	4	50	mm	200	251	2000
Frame#	Time	racr			lacr			c7			jug			rlel			rdr			llel			ldr			s2			lic			ric			lasi			rasi			rpsi			lpsi			rgt			lgt			rth1			rth2			rth3			rth4			rlfc			rmfc			rsh1			rsh2			rsh3			rsh4			rlmal			rmmal			rcal			rtoe			rmt5			lth1			lth2			lth4			lth3			llfc			lmfc			llmal			lmmal			lcal			lmt5			lsh1			lsh2			lsh3			lsh4			ltoe			SBIKE			LBIKE			RBIKE			
		X1	Y1	Z1	X2	Y2	Z2	X3	Y3	Z3	X4	Y4	Z4	X5	Y5	Z5	X6	Y6	Z6	X7	Y7	Z7	X8	Y8	Z8	X9	Y9	Z9	X10	Y10	Z10	X11	Y11	Z11	X12	Y12	Z12	X13	Y13	Z13	X14	Y14	Z14	X15	Y15	Z15	X16	Y16	Z16	X17	Y17	Z17	X18	Y18	Z18	X19	Y19	Z19	X20	Y20	Z20	X21	Y21	Z21	X22	Y22	Z22	X23	Y23	Z23	X24	Y24	Z24	X25	Y25	Z25	X26	Y26	Z26	X27	Y27	Z27	X28	Y28	Z28	X29	Y29	Z29	X30	Y30	Z30	X31	Y31	Z31	X32	Y32	Z32	X33	Y33	Z33	X34	Y34	Z34	X35	Y35	Z35	X36	Y36	Z36	X37	Y37	Z37	X38	Y38	Z38	X39	Y39	Z39	X40	Y40	Z40	X41	Y41	Z41	X42	Y42	Z42	X43	Y43	Z43	X44	Y44	Z44	X45	Y45	Z45	X46	Y46	Z46	X47	Y47	Z47	X48	Y48	Z48	X49	Y49	Z49	X50	Y50	Z50	
251	1.2550	485.043983	1346.124968	-47.541723	506.827677	1361.943797	-417.673557	474.381949	1422.197581	-229.948828	455.187949	1267.605052	-222.167330	574.755529	1112.872061	13.850351	781.997524	888.452000	-56.862945	606.753606	1127.855925	-450.822331	785.607459	888.514378	-402.429353	-85.092853	1208.850547	-240.985780	91.581908	1164.028452	-379.022363	79.035618	1204.059206	-74.642803	101.865818	1108.917820	-347.220483	85.585979	1151.926603	-105.450043	-48.533504	1249.261165	-191.775639	-42.011142	1242.945008	-287.115101	-15.559843	1122.041107	-26.707264	0.663048	1061.942514	-414.635624	129.079167	1037.671774	-25.133182	216.650704	1023.289826	-24.744916	283.596818	966.866086	-26.615241	231.569854	1055.132859	-37.379719	386.208840	901.012189	-46.360300	372.120046	891.528186	-158.253613	324.970479	785.307834	-20.867471	321.040986	697.094613	-42.013805	274.111145	625.167713	-49.254642	347.946851	694.296712	-72.682997	229.894824	515.931601	-62.798098	245.349877	541.497086	-149.874989	152.564543	477.015072	-107.416280	450.460680	507.684390	-102.189809	365.060091	464.230509	-36.481895	51.466615	935.226852	-427.971627	107.617533	868.183730	-425.121072	139.785705	883.075095	-415.874854	122.263816	780.591017	-423.580396	164.293710	661.398597	-399.777161	158.680936	636.499424	-293.598810	29.201191	263.798195	-396.219413	54.690444	282.655150	-310.880085	-40.063649	235.712463	-357.462677	167.341122	181.724287	-417.518174	121.814666	538.581725	-423.426999	114.737263	455.545778	-405.399020	69.383492	379.649646	-407.989466	133.622027	453.280679	-370.387214	248.081349	212.472950	-347.886198	-205.659409	916.723457	-226.045131	-7.365876	83.225856	-427.122802	-10.443997	79.945137	-28.898880	
252	1.2600	485.053024	1346.111959	-47.491337	506.800632	1361.957539	-417.639566	474.351292	1422.221970	-229.915892	455.183505	1267.617908	-222.113646	574.742451	1112.873180	13.903847	781.983049	888.455172	-56.875642	606.724506	1127.839692	-450.846617	785.609770	888.522645	-402.411092	-85.116946	1208.840688	-240.976720	91.561907	1164.016910	-379.043903	79.023450	1204.031490	-74.623740	101.860053	1108.872177	-347.207169	85.584153	1151.901106	-105.446078	-48.565669	1249.267991	-191.777198	-42.022824	1242.934686	-287.099611	-15.526294	1121.829912	-26.761692	0.643377	1061.942417	-414.628863	129.065851	1037.620131	-25.149476	216.637765	1023.250169	-24.741458	283.555530	966.843434	-26.605507	231.535845	1055.155821	-37.351260	386.184937	900.982896	-46.359268	372.085294	891.506802	-158.222134	324.920190	785.310999	-20.871857	320.992431	697.118334	-42.003301	274.038006	625.177418	-49.232623	347.881406	694.306211	-72.669285	229.794467	515.912521	-62.818385	245.248163	541.505791	-149.898519	152.479313	477.005847	-107.435022	450.370644	507.744976	-102.187782	364.972497	464.264825	-36.496881	51.453700	935.221992	-427.951729	107.584550	868.168366	-425.122498	139.759382	883.051911	-415.864120	122.209317	780.584460	-423.607334	164.229767	661.371852	-399.749852	158.616470	636.478419	-293.595144	29.253702	263.742633	-396.230473	54.775826	282.570641	-310.880928	-39.984486	235.638827	-357.489174	167.428254	181.666448	-417.515628	121.793572	538.557143	-423.410888	114.730972	455.523228	-405.416798	69.417772	379.614282	-408.006380	133.626691	453.246942	-370.390742	248.149853	212.438255	-347.881011	-205.681230	916.682040	-226.124939	-7.382898	83.245103	-427.145177	-10.439585	79.975330	-28.896878	
253	1.2650	485.056145	1346.109453	-47.461112	506.806660	1361.953320	-417.609191	474.334890	1422.235494	-229.904373	455.149857	1267.622500	-222.122024	574.749417	1112.863693	13.933929	781.997490	888.452070	-56.863007	606.688557	1127.812271	-450.861866	785.610311	888.531327	-402.426020	-85.141798	1208.841735	-240.945696	91.566924	1163.999418	-379.024401	79.018208	1203.988968	-74.587767	101.863587	1108.859886	-347.215517	85.586537	1151.887207	-105.447265	-48.570694	1249.278645	-191.750724	-42.054992	1242.944644	-287.074119	-15.556560	1121.822458	-26.768158	0.642851	1061.968767	-414.630010	129.025581	1037.601849	-25.120997	216.634692	1023.220603	-24.743369	283.549355	966.833676	-26.610648	231.530013	1055.068026	-37.367399	386.165415	900.980837	-46.357841	372.060931	891.509692	-158.236420	324.897912	785.302545	-20.872372	321.012692	697.328822	-42.263274	273.975085	625.189391	-49.247829	347.827677	694.279511	-72.691893	229.709538	515.930628	-62.825639	245.154002	541.557812	-149.910895	152.409197	477.005005	-107.441325	450.286110	507.812388	-102.180735	364.880326	464.337745	-36.483776	51.413889	935.221428	-427.937932	107.544162	868.159879	-425.139036	139.716750	883.032460	-415.878611	122.161651	780.577215	-423.607109	164.152890	661.373784	-399.761642	158.548999	636.473336	-293.554816	29.311690	263.688534	-396.241249	54.817401	282.546120	-310.868824	-39.930842	235.588686	-357.479229	167.483224	181.615819	-417.521476	121.767385	538.544681	-423.426381	114.732133	455.489507	-405.414407	69.426657	379.548459	-407.984700	133.630903	453.242665	-370.402153	248.221284	212.400292	-347.884994	-205.704478	916.732497	-226.138262	-7.375672	83.228498	-427.131072	-10.447127	79.999113	-28.856730	
254	1.2700	485.047184	1346.089209	-47.430172	506.836159	1361.974433	-417.559588	474.305735	1422.263014	-229.872340	455.200429	1267.618685	-222.089603	574.749783	1112.855087	13.973613	781.982665	888.455850	-56.873110	606.644871	1127.768520	-450.873654	785.605474	888.549192	-402.408558	-85.143594	1208.839021	-240.942905	91.556140	1163.985591	-379.033596	79.004324	1203.951272	-74.575588	101.837547	1108.821088	-347.140224	85.560426	1151.830025	-105.397243	-48.582545	1249.276878	-191.732066	-42.054383	1242.939322	-287.051616	-15.570396	1121.804799	-26.744163	0.629699	1061.976434	-414.605680	129.033580	1037.586883	-25.133540	216.607789	1023.213149	-24.723354	283.274644	966.946027	-26.454706	231.518575	1055.071284	-37.353394	386.154246	900.976090	-46.355939	372.045984	891.494386	-158.269018	324.873810	785.321642	-20.868959	320.975013	697.340119	-42.232890	273.917123	625.210802	-49.255080	347.791497	694.287544	-72.666433	229.613280	515.957553	-62.817047	245.095262	541.562869	-149.900600	152.341019	477.003600	-107.456796	450.203019	507.895105	-102.165657	364.820173	464.375455	-36.485642	51.401289	935.235072	-427.946245	107.516508	868.145798	-425.113742	139.697630	883.022560	-415.874443	122.090700	780.570913	-423.594495	164.053615	661.310515	-399.701127	158.521114	636.459086	-293.577698	29.367655	263.627279	-396.226502	54.927295	282.442616	-310.893058	-39.888074	235.544797	-357.497206	167.554544	181.516872	-417.499341	121.744882	538.505722	-423.425399	114.729725	455.451727	-405.415435	69.462633	379.472738	-408.017649	133.617615	453.210146	-370.382973	248.278201	212.360694	-347.862465	-205.701910	916.730817	-226.175009	-7.371166	83.226177	-427.120748	-10.441470	80.008195	-28.872313	
